<svg xmlns="http://www.w3.org/2000/svg" viewBox="0 0 87.79 90.94"><defs><style>.cls-1{fill:#fff;}</style></defs><title>Logo-Icon</title><g id="Capa_2" data-name="Capa 2"><g id="Layer_1" data-name="Layer 1"><path class="cls-1" d="M43.91,0A43.5,43.5,0,0,0,18.13,78.84V73.23A38.87,38.87,0,0,1,4.4,43.58a39.5,39.5,0,0,1,79,0A38.94,38.94,0,0,1,69.66,73.25v5.59A43.5,43.5,0,0,0,43.91,0Z"/><path class="cls-1" d="M69.66,69.36A36,36,0,0,0,80.47,43.58a36.57,36.57,0,0,0-73.14,0,36,36,0,0,0,10.8,25.78V62.67A31.53,31.53,0,0,1,11.7,43.58a32.19,32.19,0,0,1,64.37,0,31.52,31.52,0,0,1-6.41,19.09Z"/><path class="cls-1" d="M73.16,43.58a29.27,29.27,0,0,0-58.53,0,28.62,28.62,0,0,0,3.5,13.74V52.84a4.35,4.35,0,0,1,1.6-3.39,24.85,24.85,0,1,1,49-5.87A23.77,23.77,0,0,1,68,49.45a4.33,4.33,0,0,1,1.62,3.39v4.44A28.24,28.24,0,0,0,73.16,43.58Z"/><path class="cls-1" d="M43.91,21.78a21.85,21.85,0,0,0-22,21.8,21.18,21.18,0,0,0,.46,4.4l.47-.25,1.36-.68v-.33A4.39,4.39,0,0,1,26.35,43,17.37,17.37,0,0,1,32,30.75a.28.28,0,0,1,.08-.06,16.08,16.08,0,0,1,20.15-2.84,15.49,15.49,0,0,1,3.46,2.84q.09,0,.06.06A17.23,17.23,0,0,1,61.44,43a4.42,4.42,0,0,1,2.09,3.3,3.54,3.54,0,0,1,0,.46v.33l1.65.84.18.09a21.18,21.18,0,0,0,.46-4.4A21.85,21.85,0,0,0,43.91,21.78Z"/><path class="cls-1" d="M56.4,42.47a12.51,12.51,0,1,0-25,0v1.87l-3.13,1.25v3.13L22,51.85V83.12h6.25V64.36h0a4.69,4.69,0,1,1,9.38,0v25h3.13l3.13,1.57L47,89.37h3.13v-25a4.69,4.69,0,1,1,9.37,0h0V83.12h6.25V51.85l-6.26-3.13V45.59L56.4,44.34Z"/></g></g></svg>